<?xml version="1.0" encoding="UTF-8"?>
<svg xmlns="http://www.w3.org/2000/svg" xmlns:xlink="http://www.w3.org/1999/xlink" width="500pt" height="500pt" viewBox="0 0 500 500" version="1.1">
<defs>
<filter id="alpha" filterUnits="objectBoundingBox" x="0%" y="0%" width="100%" height="100%">
  <feColorMatrix type="matrix" in="SourceGraphic" values="0 0 0 0 1 0 0 0 0 1 0 0 0 0 1 0 0 0 1 0"/>
</filter>
<mask id="mask0">
  <g filter="url(#alpha)">
<rect x="0" y="0" width="500" height="500" style="fill:rgb(0%,0%,0%);fill-opacity:0.2;stroke:none;"/>
  </g>
</mask>
<clipPath id="clip1">
  <rect width="500" height="500"/>
</clipPath>
<g id="surface6" clip-path="url(#clip1)">
<path style=" stroke:none;fill-rule:nonzero;fill:rgb(0%,0%,0%);fill-opacity:1;" d="M 196.300781 263.679688 C 204.070312 274.320312 203.929688 291.539062 201.589844 307.820312 C 198.921875 293.820312 195.800781 278.910156 192.898438 265.648438 C 192.671875 264.109375 192.441406 262.648438 192.210938 261.179688 Z M 196.300781 263.679688 "/>
</g>
<mask id="mask1">
  <g filter="url(#alpha)">
<rect x="0" y="0" width="500" height="500" style="fill:rgb(0%,0%,0%);fill-opacity:0.2;stroke:none;"/>
  </g>
</mask>
<clipPath id="clip2">
  <rect width="500" height="500"/>
</clipPath>
<g id="surface9" clip-path="url(#clip2)">
<path style=" stroke:none;fill-rule:nonzero;fill:rgb(100%,100%,100%);fill-opacity:1;" d="M 199.808594 423.761719 L 198.160156 432.070312 C 198.085938 432.476562 198.195312 432.894531 198.464844 433.210938 C 198.730469 433.527344 199.125 433.707031 199.539062 433.699219 C 202.179688 433.699219 203.429688 433.28125 208.039062 433.210938 C 213.429688 433.128906 217.929688 433.800781 224.25 433.699219 C 228.078125 433.640625 228.441406 428 225.558594 427.210938 C 221.023438 426.027344 216.714844 424.101562 212.808594 421.511719 C 213.53125 418.511719 214.808594 409.691406 214.808594 409.691406 L 200 409.351562 C 200 409.351562 200.351562 419.410156 199.808594 423.761719 Z M 199.808594 423.761719 "/>
</g>
<mask id="mask2">
  <g filter="url(#alpha)">
<rect x="0" y="0" width="500" height="500" style="fill:rgb(0%,0%,0%);fill-opacity:0.2;stroke:none;"/>
  </g>
</mask>
<clipPath id="clip3">
  <rect width="500" height="500"/>
</clipPath>
<g id="surface12" clip-path="url(#clip3)">
<path style=" stroke:none;fill-rule:nonzero;fill:rgb(100%,100%,100%);fill-opacity:1;" d="M 129.339844 419.511719 L 125.570312 427.328125 C 125.375 427.6875 125.371094 428.121094 125.558594 428.480469 C 125.746094 428.84375 126.105469 429.085938 126.511719 429.128906 C 129.109375 429.539062 130.449219 429.320312 135.03125 429.960938 C 140.378906 430.699219 144.648438 432.039062 150.921875 432.960938 C 154.71875 433.480469 156.53125 428.050781 153.921875 426.851562 C 149.792969 425.035156 146.023438 422.5 142.789062 419.359375 C 144.28125 416.53125 147.789062 408.171875 147.789062 408.171875 L 133.308594 405.578125 C 133.308594 405.578125 131 415.359375 129.339844 419.511719 Z M 129.339844 419.511719 "/>
</g>
<mask id="mask3">
  <g filter="url(#alpha)">
<rect x="0" y="0" width="500" height="500" style="fill:rgb(0%,0%,0%);fill-opacity:0.101961;stroke:none;"/>
  </g>
</mask>
<clipPath id="clip4">
  <rect width="500" height="500"/>
</clipPath>
<g id="surface15" clip-path="url(#clip4)">
<path style=" stroke:none;fill-rule:nonzero;fill:rgb(100%,100%,100%);fill-opacity:1;" d="M 216.429688 215.261719 C 208.292969 215.617188 200.148438 214.945312 192.179688 213.261719 C 190.058594 212.800781 189.179688 210.039062 190.5 208.148438 C 192.503906 205.117188 194.042969 201.804688 195.070312 198.320312 C 195.402344 197.066406 196.515625 196.179688 197.808594 196.140625 C 201.578125 196.140625 209.558594 196.351562 215.519531 197.851562 C 216.878906 198.246094 217.796875 199.507812 217.761719 200.921875 C 217.742188 204.359375 218.179688 207.785156 219.058594 211.109375 C 219.359375 212.011719 219.238281 213.003906 218.730469 213.808594 C 218.21875 214.613281 217.375 215.148438 216.429688 215.261719 Z M 216.429688 215.261719 "/>
</g>
<mask id="mask4">
  <g filter="url(#alpha)">
<rect x="0" y="0" width="500" height="500" style="fill:rgb(0%,0%,0%);fill-opacity:0.2;stroke:none;"/>
  </g>
</mask>
<clipPath id="clip5">
  <rect width="500" height="500"/>
</clipPath>
<g id="surface18" clip-path="url(#clip5)">
<path style=" stroke:none;fill-rule:nonzero;fill:rgb(0%,0%,0%);fill-opacity:1;" d="M 174 166.25 L 179.589844 160.679688 C 179.960938 163.820312 177.378906 176.589844 173.871094 181.621094 C 174 176.71875 174.089844 171.578125 174 166.25 Z M 174 166.25 "/>
</g>
<mask id="mask5">
  <g filter="url(#alpha)">
<rect x="0" y="0" width="500" height="500" style="fill:rgb(0%,0%,0%);fill-opacity:0.2;stroke:none;"/>
  </g>
</mask>
<clipPath id="clip6">
  <rect width="500" height="500"/>
</clipPath>
<g id="surface21" clip-path="url(#clip6)">
<path style=" stroke:none;fill-rule:nonzero;fill:rgb(0%,0%,0%);fill-opacity:1;" d="M 201.910156 122.46875 L 209.621094 129.371094 C 209.167969 130.566406 208.832031 131.808594 208.621094 133.070312 C 205.53125 132.519531 201.511719 129.148438 201.449219 126.121094 C 201.363281 124.886719 201.519531 123.644531 201.910156 122.46875 Z M 201.910156 122.46875 "/>
</g>
<mask id="mask6">
  <g filter="url(#alpha)">
<rect x="0" y="0" width="500" height="500" style="fill:rgb(0%,0%,0%);fill-opacity:0.301961;stroke:none;"/>
  </g>
</mask>
<clipPath id="clip7">
  <rect width="500" height="500"/>
</clipPath>
<g id="surface24" clip-path="url(#clip7)">
<path style=" stroke:none;fill-rule:nonzero;fill:rgb(0%,0%,0%);fill-opacity:1;" d="M 124.199219 430.269531 L 125 428.828125 C 125.125 428.625 125.296875 428.449219 125.5 428.320312 C 125.382812 427.992188 125.40625 427.632812 125.558594 427.320312 L 129.339844 419.5 C 130.574219 415.984375 131.621094 412.40625 132.480469 408.78125 L 130.699219 408.539062 L 130.988281 402.429688 L 132.589844 402.628906 C 136.121094 390.46875 151 344.171875 161.5 316 C 169.648438 274.121094 163.089844 242.738281 172.5 223 C 171.210938 215.761719 173.238281 200.46875 173.871094 181.421875 C 173.871094 180.539062 173.871094 179.628906 173.941406 178.730469 L 173.941406 175.621094 C 173.941406 174.621094 173.941406 173.550781 173.941406 172.488281 L 173.941406 170.28125 C 172.050781 172.199219 170.238281 174.160156 168.648438 176.140625 C 167.046875 178.058594 165.644531 180.136719 164.46875 182.339844 C 164.25 182.820312 164.03125 183.28125 163.859375 183.710938 C 163.691406 184.140625 163.519531 184.710938 163.371094 185.25 C 163.078125 186.472656 162.851562 187.710938 162.699219 188.960938 C 162.382812 191.746094 162.246094 194.546875 162.28125 197.351562 C 162.28125 200.238281 162.460938 203.199219 162.691406 206.160156 C 162.921875 209.121094 163.300781 212.160156 163.691406 214.929688 L 163.691406 215.101562 C 163.835938 216.152344 163.699219 217.222656 163.289062 218.199219 L 163.480469 218.628906 C 165.082031 222.195312 165.929688 226.050781 165.96875 229.960938 C 165.976562 230.839844 165.632812 231.683594 165.007812 232.304688 C 164.386719 232.925781 163.539062 233.269531 162.660156 233.261719 L 158.660156 233.261719 C 157.058594 233.253906 155.703125 232.074219 155.46875 230.488281 L 154.761719 225.828125 C 154.035156 224.007812 153.675781 222.0625 153.699219 220.101562 C 152.9375 219.34375 152.402344 218.386719 152.160156 217.339844 C 151.378906 214.070312 150.789062 211.011719 150.210938 207.808594 C 149.628906 204.609375 149.210938 201.449219 148.828125 198.171875 C 148.46875 194.800781 148.3125 191.417969 148.359375 188.03125 C 148.402344 186.191406 148.550781 184.359375 148.808594 182.539062 C 148.949219 181.578125 149.140625 180.578125 149.378906 179.539062 C 149.640625 178.480469 149.960938 177.539062 150.300781 176.539062 C 151.632812 173.089844 153.335938 169.796875 155.378906 166.71875 C 157.234375 163.878906 159.238281 161.140625 161.378906 158.511719 C 163.480469 155.910156 165.660156 153.449219 167.871094 151.039062 C 168.988281 149.828125 170.109375 148.640625 171.269531 147.46875 L 173.011719 145.710938 C 173.621094 145.121094 174.160156 144.578125 174.878906 143.910156 L 175.089844 143.71875 C 175.367188 143.460938 175.660156 143.226562 175.96875 143.011719 C 176.101562 142.910156 176.261719 142.820312 176.410156 142.71875 C 177.894531 141.472656 179.71875 140.699219 181.648438 140.511719 L 182.121094 140.511719 C 181.449219 138.339844 181.808594 137.011719 184.03125 135.828125 C 187.199219 134.148438 191.96875 133.441406 195.738281 135.171875 C 196.726562 131.449219 197.152344 127.605469 197 123.761719 C 196.582031 122.878906 196.246094 121.957031 196 121.011719 C 194.296875 120.351562 192.859375 119.148438 191.910156 117.589844 C 190.207031 117.035156 189.054688 115.441406 189.058594 113.648438 C 188.828125 114.28125 188.339844 114.789062 187.71875 115.050781 C 187.523438 112.632812 187.761719 110.203125 188.421875 107.871094 C 187.800781 108.347656 187.011719 108.546875 186.238281 108.421875 C 187.519531 107.421875 186.738281 105.949219 188.878906 104.101562 C 187.660156 101 188.199219 96.53125 193.960938 96.429688 C 201.359375 89.78125 215.519531 86.121094 219.589844 95.171875 C 220.003906 96.050781 220.148438 97.035156 220 98 C 218.582031 97.84375 217.148438 97.96875 215.78125 98.359375 C 207.78125 100.621094 204.320312 105.019531 202 112.628906 C 199.679688 120.238281 198.820312 130.550781 202.429688 132.898438 C 204.246094 133.9375 206.355469 134.355469 208.429688 134.089844 C 208.429688 134.441406 208.378906 134.769531 208.378906 135.089844 C 208.378906 135.445312 208.398438 135.796875 208.441406 136.148438 C 209.910156 136.148438 211.179688 136.148438 212.019531 136.148438 C 215.308594 136.28125 219.429688 139.820312 222.640625 142.46875 C 222.769531 142.589844 222.878906 142.710938 222.988281 142.828125 L 223.109375 142.828125 C 225.078125 143.277344 226.859375 144.328125 228.210938 145.828125 C 228.730469 146.234375 229.207031 146.695312 229.628906 147.199219 C 231.460938 149.351562 233.558594 151.648438 235.628906 153.820312 C 237.699219 155.988281 239.78125 158.101562 241.910156 160.101562 C 243.941406 162.046875 246.070312 163.890625 248.289062 165.621094 C 249.222656 166.335938 250.195312 167.003906 251.199219 167.621094 C 251.628906 167.878906 251.960938 168.019531 252.128906 168.128906 C 252.300781 168.238281 252.128906 168.128906 252.128906 168.128906 L 252.378906 168.128906 C 252.820312 168.011719 253.378906 167.851562 253.921875 167.640625 C 255.148438 167.15625 256.347656 166.613281 257.519531 166.011719 C 260.011719 164.75 262.519531 163.238281 265.089844 161.648438 C 270.089844 158.480469 275.191406 154.890625 279.921875 151.21875 L 280 151.160156 C 281.390625 150.097656 283.183594 149.710938 284.890625 150.101562 L 287.671875 148.308594 C 289.421875 147.171875 291.390625 146.410156 293.449219 146.070312 L 296.191406 145.609375 C 296.832031 145.554688 297.414062 145.992188 297.539062 146.625 C 297.660156 147.257812 297.285156 147.882812 296.671875 148.070312 C 288.191406 150.589844 277.308594 156.449219 269.21875 162.601562 C 261.128906 168.75 253.058594 174.300781 249.050781 180.320312 C 248.109375 181.769531 246.269531 182.34375 244.671875 181.691406 L 244.589844 181.691406 C 242.800781 180.925781 241.066406 180.035156 239.398438 179.03125 C 236.46875 177.242188 233.632812 175.300781 230.898438 173.21875 C 230.511719 172.929688 230.140625 172.628906 229.769531 172.339844 C 229.691406 173.25 229.621094 174.179688 229.550781 175.128906 C 221.480469 170.710938 205.75 169.070312 198.25 169.820312 C 190.398438 170.609375 185.148438 172.890625 182.710938 180.910156 C 180.269531 188.929688 177.710938 223.578125 181.761719 231.371094 C 190.359375 247.890625 207.140625 244.109375 212.761719 261.171875 C 219.261719 280.839844 217.710938 305.839844 214.539062 333.980469 C 212.25 354.238281 209.050781 395.148438 207.261719 403.980469 C 205.46875 412.808594 202.261719 425.980469 208.261719 428.460938 C 212.261719 430.140625 221.890625 431.730469 227.351562 430.890625 C 227.226562 431.597656 226.902344 432.253906 226.410156 432.78125 C 226.722656 432.945312 226.933594 433.257812 226.96875 433.609375 L 227.101562 435.160156 C 227.117188 435.433594 227.019531 435.707031 226.828125 435.90625 C 226.640625 436.105469 226.375 436.21875 226.101562 436.21875 L 198.378906 436.21875 C 198.117188 436.234375 197.863281 436.113281 197.707031 435.898438 C 197.550781 435.6875 197.507812 435.410156 197.601562 435.160156 L 198.011719 433.609375 C 198.070312 433.390625 198.191406 433.195312 198.359375 433.039062 C 198.167969 432.746094 198.09375 432.386719 198.160156 432.039062 L 199.808594 423.738281 C 200.109375 420.054688 200.207031 416.355469 200.101562 412.660156 L 197.898438 412.660156 L 196.839844 406.578125 L 198.441406 406.53125 C 198.570312 392.53125 199.351562 339.960938 203.328125 317.140625 C 202.78125 314.058594 202.199219 310.910156 201.589844 307.71875 C 199.871094 298.71875 197.949219 289.308594 196.039062 280.230469 C 192.488281 293.949219 188.878906 307.460938 186.039062 316.949219 C 178.648438 342.03125 156.148438 392.179688 150.351562 404.78125 L 151.761719 404.941406 L 149.25 411.058594 L 146.601562 410.691406 C 145.449219 413.390625 143.679688 417.449219 142.730469 419.25 C 145.957031 422.394531 149.730469 424.933594 153.859375 426.738281 C 155.859375 427.648438 155.300781 430.960938 153.289062 432.308594 C 153.550781 432.53125 153.679688 432.871094 153.628906 433.210938 L 153.359375 434.738281 C 153.253906 435.316406 152.710938 435.707031 152.128906 435.621094 L 124.671875 431.359375 C 124.4375 431.3125 124.242188 431.15625 124.148438 430.9375 C 124.054688 430.722656 124.074219 430.472656 124.199219 430.269531 Z M 252.101562 168.269531 C 252.042969 168.265625 251.988281 168.265625 251.929688 168.269531 C 251.609375 168.269531 251.519531 168.269531 251.53125 168.320312 C 251.539062 168.371094 251.78125 168.300781 252.101562 168.230469 Z M 252.101562 168.269531 "/>
</g>
<mask id="mask7">
  <g filter="url(#alpha)">
<rect x="0" y="0" width="500" height="500" style="fill:rgb(0%,0%,0%);fill-opacity:0.0901961;stroke:none;"/>
  </g>
</mask>
<clipPath id="clip8">
  <rect width="500" height="500"/>
</clipPath>
<g id="surface27" clip-path="url(#clip8)">
<path style=" stroke:none;fill-rule:nonzero;fill:rgb(72.941176%,27.843137%,63.529412%);fill-opacity:1;" d="M 361.371094 204.5 C 361.371094 241.8125 331.121094 272.058594 293.808594 272.058594 C 256.496094 272.058594 226.25 241.8125 226.25 204.5 C 226.25 167.1875 256.496094 136.941406 293.808594 136.941406 C 331.121094 136.941406 361.371094 167.1875 361.371094 204.5 Z M 361.371094 204.5 "/>
</g>
<mask id="mask8">
  <g filter="url(#alpha)">
<rect x="0" y="0" width="500" height="500" style="fill:rgb(0%,0%,0%);fill-opacity:0.0901961;stroke:none;"/>
  </g>
</mask>
<clipPath id="clip9">
  <rect width="500" height="500"/>
</clipPath>
<g id="surface30" clip-path="url(#clip9)">
<path style=" stroke:none;fill-rule:nonzero;fill:rgb(72.941176%,27.843137%,63.529412%);fill-opacity:1;" d="M 339.769531 204.5 C 339.769531 229.882812 319.191406 250.460938 293.808594 250.460938 C 268.425781 250.460938 247.851562 229.882812 247.851562 204.5 C 247.851562 179.117188 268.425781 158.539062 293.808594 158.539062 C 319.191406 158.539062 339.769531 179.117188 339.769531 204.5 Z M 339.769531 204.5 "/>
</g>
<mask id="mask9">
  <g filter="url(#alpha)">
<rect x="0" y="0" width="500" height="500" style="fill:rgb(0%,0%,0%);fill-opacity:0.2;stroke:none;"/>
  </g>
</mask>
<clipPath id="clip10">
  <rect width="500" height="500"/>
</clipPath>
<g id="surface33" clip-path="url(#clip10)">
<path style=" stroke:none;fill-rule:nonzero;fill:rgb(72.941176%,27.843137%,63.529412%);fill-opacity:1;" d="M 279 202.570312 C 279 212.058594 285.640625 221.691406 293.820312 221.691406 C 302 221.691406 308.640625 212.058594 308.640625 202.570312 C 308.640625 193.078125 302 187.300781 293.808594 187.300781 C 285.621094 187.300781 279 193.070312 279 202.570312 Z M 279 202.570312 "/>
</g>
<mask id="mask10">
  <g filter="url(#alpha)">
<rect x="0" y="0" width="500" height="500" style="fill:rgb(0%,0%,0%);fill-opacity:0.101961;stroke:none;"/>
  </g>
</mask>
<clipPath id="clip11">
  <rect width="500" height="500"/>
</clipPath>
<g id="surface36" clip-path="url(#clip11)">
<path style=" stroke:none;fill-rule:nonzero;fill:rgb(0%,0%,0%);fill-opacity:1;" d="M 293.808594 173.140625 C 300.21875 173.140625 305.414062 178.332031 305.421875 184.738281 L 282.210938 184.738281 C 282.210938 178.332031 287.402344 173.140625 293.808594 173.140625 Z M 293.808594 173.140625 "/>
</g>
<mask id="mask11">
  <g filter="url(#alpha)">
<rect x="0" y="0" width="500" height="500" style="fill:rgb(0%,0%,0%);fill-opacity:0.2;stroke:none;"/>
  </g>
</mask>
<clipPath id="clip12">
  <rect width="500" height="500"/>
</clipPath>
<g id="surface39" clip-path="url(#clip12)">
<path style=" stroke:none;fill-rule:nonzero;fill:rgb(0%,0%,0%);fill-opacity:1;" d="M 307.578125 187.039062 L 305.421875 184.75 L 282.210938 184.75 L 280.039062 187.039062 "/>
</g>
<mask id="mask12">
  <g filter="url(#alpha)">
<rect x="0" y="0" width="500" height="500" style="fill:rgb(0%,0%,0%);fill-opacity:0.301961;stroke:none;"/>
  </g>
</mask>
<clipPath id="clip13">
  <rect width="500" height="500"/>
</clipPath>
<g id="surface42" clip-path="url(#clip13)">
<path style=" stroke:none;fill-rule:nonzero;fill:rgb(100%,100%,100%);fill-opacity:1;" d="M 280 187 L 307.539062 187 C 307.832031 187.289062 307.917969 187.726562 307.753906 188.101562 C 307.59375 188.480469 307.21875 188.722656 306.808594 188.710938 L 280.78125 188.710938 C 280.359375 188.742188 279.964844 188.511719 279.792969 188.128906 C 279.617188 187.746094 279.699219 187.292969 280 187 Z M 280 187 "/>
</g>
<mask id="mask13">
  <g filter="url(#alpha)">
<rect x="0" y="0" width="500" height="500" style="fill:rgb(0%,0%,0%);fill-opacity:0.301961;stroke:none;"/>
  </g>
</mask>
<clipPath id="clip14">
  <rect width="500" height="500"/>
</clipPath>
<g id="surface45" clip-path="url(#clip14)">
<path style=" stroke:none;fill-rule:nonzero;fill:rgb(100%,100%,100%);fill-opacity:1;" d="M 281.691406 225.261719 L 305.941406 225.261719 L 302.960938 221.261719 L 284.660156 221.261719 Z M 281.691406 225.261719 "/>
</g>
<mask id="mask14">
  <g filter="url(#alpha)">
<rect x="0" y="0" width="500" height="500" style="fill:rgb(0%,0%,0%);fill-opacity:0.101961;stroke:none;"/>
  </g>
</mask>
<clipPath id="clip15">
  <rect width="500" height="500"/>
</clipPath>
<g id="surface48" clip-path="url(#clip15)">
<path style=" stroke:none;fill-rule:nonzero;fill:rgb(0%,0%,0%);fill-opacity:1;" d="M 305.941406 234.75 L 281.679688 234.75 L 281.679688 225.25 L 305.941406 225.25 Z M 305.941406 234.75 "/>
</g>
</defs>
<g id="surface1">
<path style=" stroke:none;fill-rule:nonzero;fill:rgb(96.078431%,96.078431%,96.078431%);fill-opacity:1;" d="M 443.890625 436.238281 C 443.890625 429.988281 357.082031 424.921875 250 424.921875 C 142.917969 424.921875 56.109375 429.988281 56.109375 436.238281 C 56.109375 442.492188 142.917969 447.558594 250 447.558594 C 357.082031 447.558594 443.890625 442.492188 443.890625 436.238281 Z M 443.890625 436.238281 "/>
<path style=" stroke:none;fill-rule:nonzero;fill:rgb(14.901961%,19.607843%,21.960784%);fill-opacity:1;" d="M 229.648438 147.261719 C 230.519531 148.261719 231.558594 149.46875 232.550781 150.570312 C 233.539062 151.671875 234.550781 152.78125 235.550781 153.878906 C 237.550781 156.039062 239.699219 158.160156 241.828125 160.160156 C 243.859375 162.105469 245.988281 163.945312 248.210938 165.671875 C 249.144531 166.390625 250.117188 167.058594 251.128906 167.671875 C 251.558594 167.929688 251.878906 168.070312 252.050781 168.179688 C 252.21875 168.289062 252.050781 168.179688 252.050781 168.179688 C 252.050781 168.179688 251.921875 168.179688 251.871094 168.179688 C 251.558594 168.179688 251.460938 168.179688 251.46875 168.230469 C 251.75 168.261719 252.035156 168.230469 252.300781 168.140625 C 252.820312 168.003906 253.328125 167.839844 253.828125 167.648438 C 255.0625 167.171875 256.265625 166.632812 257.441406 166.03125 C 259.929688 164.761719 262.441406 163.25 265.011719 161.660156 C 270.011719 158.488281 275.109375 154.898438 279.839844 151.230469 L 279.910156 151.179688 C 282.414062 149.40625 285.859375 149.855469 287.828125 152.203125 C 289.796875 154.554688 289.632812 158.027344 287.449219 160.179688 C 285.011719 162.378906 282.628906 164.421875 280.160156 166.488281 C 277.691406 168.558594 275.160156 170.570312 272.621094 172.550781 C 270.078125 174.53125 267.359375 176.449219 264.441406 178.28125 C 262.96875 179.191406 261.441406 180.078125 259.71875 180.929688 C 258.800781 181.378906 257.859375 181.777344 256.898438 182.128906 C 255.695312 182.597656 254.445312 182.933594 253.171875 183.128906 C 252.269531 183.265625 251.359375 183.296875 250.449219 183.230469 C 250.199219 183.230469 249.851562 183.179688 249.679688 183.148438 L 249.109375 183.050781 C 248.738281 182.980469 248.320312 182.910156 247.988281 182.828125 C 246.816406 182.53125 245.664062 182.144531 244.550781 181.671875 C 242.761719 180.894531 241.027344 179.996094 239.359375 178.988281 C 236.425781 177.210938 233.585938 175.277344 230.859375 173.191406 C 228.199219 171.191406 225.660156 169.121094 223.160156 167.03125 C 221.914062 165.988281 220.671875 164.9375 219.441406 163.871094 C 218.199219 162.78125 217.03125 161.75 215.730469 160.558594 C 211.824219 156.949219 211.582031 150.851562 215.195312 146.945312 C 218.808594 143.039062 224.902344 142.796875 228.808594 146.410156 C 229.101562 146.660156 229.398438 147 229.648438 147.261719 Z M 229.648438 147.261719 "/>
<path style=" stroke:none;fill-rule:nonzero;fill:rgb(100%,54.509804%,48.235294%);fill-opacity:1;" d="M 284.179688 150.601562 L 287.640625 148.359375 C 289.398438 147.222656 291.375 146.457031 293.441406 146.109375 L 296.171875 145.660156 C 297.035156 145.519531 297.921875 145.734375 298.628906 146.25 C 299.335938 146.769531 299.804688 147.550781 299.929688 148.421875 L 300.5 152.421875 C 300.730469 154.003906 299.777344 155.519531 298.25 156 L 293.75 157.421875 C 293.75 157.421875 289.75 159.890625 286.398438 159.289062 C 285.359375 159.085938 284.5 158.359375 284.121094 157.371094 L 283 154.46875 C 282.417969 153.0625 282.910156 151.441406 284.179688 150.601562 Z M 284.179688 150.601562 "/>
<path style=" stroke:none;fill-rule:nonzero;fill:rgb(72.941176%,27.843137%,63.529412%);fill-opacity:1;" d="M 203.339844 317.191406 C 196.050781 276.769531 183.410156 223.941406 183.410156 223.941406 L 222.121094 227.339844 C 222.121094 227.339844 228.609375 292.710938 227.050781 321.050781 C 225.441406 350.519531 216.25 410.050781 216.25 410.050781 L 198.398438 410.050781 C 198.398438 410.050781 198.71875 343.648438 203.339844 317.191406 Z M 203.339844 317.191406 "/>
<use xlink:href="#surface6" mask="url(#mask0)"/>
<path style=" stroke:none;fill-rule:nonzero;fill:rgb(14.901961%,19.607843%,21.960784%);fill-opacity:1;" d="M 198.378906 436.238281 L 226.160156 436.238281 C 226.4375 436.242188 226.699219 436.125 226.890625 435.925781 C 227.078125 435.726562 227.175781 435.457031 227.160156 435.179688 L 227.03125 433.628906 C 226.96875 433.066406 226.496094 432.636719 225.929688 432.628906 L 199.300781 432.628906 C 198.699219 432.652344 198.179688 433.054688 198.011719 433.628906 L 197.589844 435.179688 C 197.503906 435.429688 197.546875 435.707031 197.703125 435.917969 C 197.863281 436.132812 198.117188 436.25 198.378906 436.238281 Z M 198.378906 436.238281 "/>
<path style=" stroke:none;fill-rule:nonzero;fill:rgb(14.901961%,19.607843%,21.960784%);fill-opacity:1;" d="M 199.808594 423.761719 L 198.160156 432.070312 C 198.085938 432.476562 198.195312 432.894531 198.464844 433.210938 C 198.730469 433.527344 199.125 433.707031 199.539062 433.699219 C 202.179688 433.699219 203.429688 433.28125 208.039062 433.210938 C 213.429688 433.128906 217.929688 433.800781 224.25 433.699219 C 228.078125 433.640625 228.441406 428 225.558594 427.210938 C 221.023438 426.027344 216.714844 424.101562 212.808594 421.511719 C 213.53125 418.511719 214.808594 409.691406 214.808594 409.691406 L 200 409.351562 C 200 409.351562 200.351562 419.410156 199.808594 423.761719 Z M 199.808594 423.761719 "/>
<use xlink:href="#surface9" mask="url(#mask1)"/>
<path style=" stroke:none;fill-rule:nonzero;fill:rgb(14.901961%,19.607843%,21.960784%);fill-opacity:1;" d="M 124.710938 431.421875 L 152.148438 435.671875 C 152.734375 435.761719 153.289062 435.371094 153.398438 434.789062 L 153.671875 433.269531 C 153.710938 433.007812 153.644531 432.738281 153.488281 432.527344 C 153.328125 432.3125 153.09375 432.167969 152.828125 432.128906 L 126.539062 428.058594 C 125.925781 427.996094 125.328125 428.289062 125.011719 428.820312 L 124.199219 430.269531 C 124.042969 430.480469 124.011719 430.757812 124.117188 430.996094 C 124.222656 431.234375 124.449219 431.394531 124.710938 431.421875 Z M 124.710938 431.421875 "/>
<path style=" stroke:none;fill-rule:nonzero;fill:rgb(14.901961%,19.607843%,21.960784%);fill-opacity:1;" d="M 129.339844 419.511719 L 125.570312 427.328125 C 125.375 427.6875 125.371094 428.121094 125.558594 428.480469 C 125.746094 428.84375 126.105469 429.085938 126.511719 429.128906 C 129.109375 429.539062 130.449219 429.320312 135.03125 429.960938 C 140.378906 430.699219 144.648438 432.039062 150.921875 432.960938 C 154.71875 433.480469 156.53125 428.050781 153.921875 426.851562 C 149.792969 425.035156 146.023438 422.5 142.789062 419.359375 C 144.28125 416.53125 147.789062 408.171875 147.789062 408.171875 L 133.308594 405.578125 C 133.308594 405.578125 131 415.359375 129.339844 419.511719 Z M 129.339844 419.511719 "/>
<use xlink:href="#surface12" mask="url(#mask2)"/>
<path style=" stroke:none;fill-rule:nonzero;fill:rgb(14.901961%,19.607843%,21.960784%);fill-opacity:1;" d="M 216.660156 412.421875 L 197.910156 412.710938 L 196.851562 406.640625 L 217.75 405.988281 Z M 216.660156 412.421875 "/>
<path style=" stroke:none;fill-rule:nonzero;fill:rgb(72.941176%,27.843137%,63.529412%);fill-opacity:1;" d="M 161.5 316 C 169.648438 274.121094 163.089844 242.738281 172.5 223 L 209.671875 226.269531 C 209.671875 226.269531 194.308594 289.089844 186.078125 317 C 177.53125 346 148.960938 407.929688 148.960938 407.929688 L 131.769531 405.480469 C 131.769531 405.480469 149.429688 348.410156 161.5 316 Z M 161.5 316 "/>
<path style=" stroke:none;fill-rule:nonzero;fill:rgb(14.901961%,19.607843%,21.960784%);fill-opacity:1;" d="M 149.289062 411.121094 L 130.699219 408.539062 L 130.988281 402.441406 L 151.789062 405.011719 Z M 149.289062 411.121094 "/>
<path style=" stroke:none;fill-rule:nonzero;fill:rgb(14.901961%,19.607843%,21.960784%);fill-opacity:1;" d="M 222.648438 142.5 C 219.449219 139.851562 215.320312 136.308594 212.03125 136.160156 C 208.738281 136.011719 199.171875 136.421875 195.46875 134.929688 C 191.75 133.625 187.65625 133.929688 184.171875 135.769531 C 181.171875 137.398438 181.570312 139.28125 183.390625 143.238281 C 181.570312 146.878906 185.140625 158.179688 193.070312 159.738281 C 201 161.300781 231 149.378906 222.648438 142.5 Z M 222.648438 142.5 "/>
<path style=" stroke:none;fill-rule:nonzero;fill:rgb(14.901961%,19.607843%,21.960784%);fill-opacity:1;" d="M 181.789062 140.480469 C 195.605469 139.128906 209.550781 139.933594 223.121094 142.871094 C 227.480469 143.839844 230.589844 147.695312 230.621094 152.160156 C 230.621094 162.03125 229.851562 181.941406 224.800781 212.308594 C 224.101562 216.488281 225.28125 223.941406 222.148438 227.308594 C 216.320312 230.960938 178.640625 227.730469 172.5 222.960938 C 170.558594 212.121094 176.058594 183.351562 173.171875 150.859375 C 172.710938 145.621094 176.558594 140.992188 181.789062 140.480469 Z M 181.789062 140.480469 "/>
<use xlink:href="#surface15" mask="url(#mask3)"/>
<use xlink:href="#surface18" mask="url(#mask4)"/>
<path style=" stroke:none;fill-rule:nonzero;fill:rgb(100%,54.509804%,48.235294%);fill-opacity:1;" d="M 196.609375 117.710938 C 197.359375 123.898438 197.691406 134.710938 193.609375 139.890625 C 193.265625 140.316406 193.128906 140.875 193.238281 141.414062 C 193.351562 141.953125 193.695312 142.414062 194.179688 142.671875 C 198.480469 144.90625 203.234375 146.121094 208.078125 146.21875 C 210.03125 146.351562 211.980469 146.007812 213.769531 145.21875 C 214.433594 144.863281 214.816406 144.140625 214.738281 143.394531 C 214.660156 142.644531 214.140625 142.015625 213.421875 141.800781 C 207.089844 139.339844 207.828125 134.171875 209.589844 129.339844 Z M 196.609375 117.710938 "/>
<use xlink:href="#surface21" mask="url(#mask5)"/>
<path style=" stroke:none;fill-rule:nonzero;fill:rgb(14.901961%,19.607843%,21.960784%);fill-opacity:1;" d="M 218.941406 98 C 221.441406 101.429688 222.601562 111.140625 219.988281 114.921875 C 217.488281 109.601562 214.339844 99.550781 218.941406 98 Z M 218.941406 98 "/>
<path style=" stroke:none;fill-rule:nonzero;fill:rgb(100%,54.509804%,48.235294%);fill-opacity:1;" d="M 195 107.488281 C 195.210938 116.71875 194.871094 122.140625 199.351562 127.011719 C 206.089844 134.328125 217.640625 130.449219 220.199219 121.308594 C 222.5 113.089844 221.769531 99.371094 212.871094 95.441406 C 208.867188 93.671875 204.234375 94.082031 200.605469 96.527344 C 196.976562 98.976562 194.859375 103.117188 195 107.488281 Z M 195 107.488281 "/>
<path style=" stroke:none;fill-rule:nonzero;fill:rgb(14.901961%,19.607843%,21.960784%);fill-opacity:1;" d="M 199.21875 102.75 C 200.449219 109.898438 197.421875 110.328125 200.449219 114.648438 C 199.277344 116.492188 197.425781 117.796875 195.300781 118.28125 C 195.300781 118.28125 189.050781 118.28125 189.050781 113.648438 C 188.816406 114.28125 188.332031 114.789062 187.710938 115.050781 C 187.710938 115.050781 186.980469 107.050781 190.410156 105.128906 C 193.378906 107.46875 199.21875 102.75 199.21875 102.75 Z M 199.21875 102.75 "/>
<path style=" stroke:none;fill-rule:nonzero;fill:rgb(14.901961%,19.607843%,21.960784%);fill-opacity:1;" d="M 219.578125 95.179688 C 222.148438 100.890625 214.101562 104.179688 210.660156 105.179688 C 212.898438 102.308594 212.449219 100.980469 212.449219 100.980469 C 212.449219 100.980469 209.449219 104.921875 201.199219 106.039062 C 201.929688 104.109375 203.074219 102.363281 204.550781 100.921875 C 204.550781 100.921875 200.140625 106.511719 191.039062 106.859375 C 188.121094 105.488281 185.789062 96.601562 193.960938 96.441406 C 201.351562 89.78125 215.511719 86.121094 219.578125 95.179688 Z M 219.578125 95.179688 "/>
<path style=" stroke:none;fill-rule:nonzero;fill:rgb(14.901961%,19.607843%,21.960784%);fill-opacity:1;" d="M 189.660156 103.511719 C 186.519531 105.628906 187.660156 107.261719 186.230469 108.410156 C 188.328125 108.910156 190.171875 106.011719 190.171875 106.011719 Z M 189.660156 103.511719 "/>
<path style=" stroke:none;fill-rule:nonzero;fill:rgb(100%,54.509804%,48.235294%);fill-opacity:1;" d="M 191.710938 117.28125 C 192.722656 119.121094 194.398438 120.507812 196.398438 121.148438 C 198.929688 121.890625 199.96875 119.371094 199.070312 116.738281 C 198.261719 114.378906 195.96875 111.140625 193.519531 111.558594 C 191.070312 111.980469 190.390625 114.941406 191.710938 117.28125 Z M 191.710938 117.28125 "/>
<path style=" stroke:none;fill-rule:nonzero;fill:rgb(14.901961%,19.607843%,21.960784%);fill-opacity:1;" d="M 208.101562 110.078125 C 208.101562 110.828125 208.449219 111.449219 208.941406 111.46875 C 209.429688 111.488281 209.851562 110.890625 209.878906 110.140625 C 209.910156 109.390625 209.53125 108.769531 209.039062 108.75 C 208.550781 108.730469 208.128906 109.328125 208.101562 110.078125 Z M 208.101562 110.078125 "/>
<path style=" stroke:none;fill-rule:nonzero;fill:rgb(14.901961%,19.607843%,21.960784%);fill-opacity:1;" d="M 217.390625 110.160156 C 217.390625 110.910156 217.730469 111.53125 218.21875 111.550781 C 218.710938 111.570312 219.140625 110.960938 219.160156 110.210938 C 219.179688 109.460938 218.820312 108.839844 218.328125 108.828125 C 217.839844 108.820312 217.410156 109.410156 217.390625 110.160156 Z M 217.390625 110.160156 "/>
<path style=" stroke:none;fill-rule:nonzero;fill:rgb(100%,33.72549%,32.156863%);fill-opacity:1;" d="M 214.640625 111 C 214.640625 111 216.191406 115.378906 217.988281 117.53125 C 216.609375 118.730469 214.371094 118.089844 214.371094 118.089844 Z M 214.640625 111 "/>
<path style=" stroke:none;fill-rule:nonzero;fill:rgb(14.901961%,19.607843%,21.960784%);fill-opacity:1;" d="M 211.820312 121.28125 C 210.117188 121.257812 208.5 120.53125 207.351562 119.28125 C 207.265625 119.195312 207.265625 119.054688 207.351562 118.96875 C 207.390625 118.925781 207.445312 118.902344 207.503906 118.902344 C 207.5625 118.902344 207.621094 118.925781 207.660156 118.96875 C 208.960938 120.34375 210.84375 121.007812 212.71875 120.761719 C 212.839844 120.75 212.945312 120.832031 212.960938 120.949219 C 212.972656 121.074219 212.882812 121.183594 212.761719 121.199219 C 212.449219 121.246094 212.132812 121.269531 211.820312 121.28125 Z M 211.820312 121.28125 "/>
<path style=" stroke:none;fill-rule:nonzero;fill:rgb(14.901961%,19.607843%,21.960784%);fill-opacity:1;" d="M 209.730469 105.761719 C 209.800781 105.789062 209.855469 105.84375 209.890625 105.910156 C 209.953125 106.007812 209.96875 106.128906 209.941406 106.242188 C 209.914062 106.355469 209.839844 106.453125 209.738281 106.511719 C 208.542969 107.265625 207.050781 107.394531 205.738281 106.859375 C 205.523438 106.753906 205.433594 106.488281 205.539062 106.269531 C 205.648438 106.050781 205.910156 105.960938 206.128906 106.070312 C 207.183594 106.484375 208.367188 106.367188 209.320312 105.761719 C 209.449219 105.691406 209.601562 105.691406 209.730469 105.761719 Z M 209.730469 105.761719 "/>
<path style=" stroke:none;fill-rule:nonzero;fill:rgb(14.901961%,19.607843%,21.960784%);fill-opacity:1;" d="M 221.128906 105.328125 C 220.984375 105.347656 220.839844 105.296875 220.738281 105.191406 C 220.015625 104.335938 218.925781 103.882812 217.808594 103.980469 C 217.570312 104.015625 217.347656 103.851562 217.308594 103.609375 C 217.273438 103.367188 217.4375 103.140625 217.679688 103.101562 C 219.089844 102.964844 220.476562 103.523438 221.398438 104.601562 C 221.507812 104.722656 221.542969 104.894531 221.484375 105.046875 C 221.429688 105.199219 221.292969 105.308594 221.128906 105.328125 Z M 221.128906 105.328125 "/>
<path style=" stroke:none;fill-rule:nonzero;fill:rgb(14.901961%,19.607843%,21.960784%);fill-opacity:1;" d="M 187.371094 158.621094 C 186.910156 158.949219 186.289062 159.429688 185.738281 159.859375 L 184.050781 161.21875 C 182.921875 162.128906 181.800781 163.070312 180.699219 164.019531 C 178.488281 165.921875 176.371094 167.898438 174.351562 169.921875 C 172.371094 171.890625 170.492188 173.960938 168.71875 176.121094 C 167.125 178.042969 165.726562 180.117188 164.550781 182.320312 C 164.328125 182.800781 164.109375 183.320312 163.941406 183.691406 C 163.769531 184.058594 163.601562 184.691406 163.449219 185.230469 C 163.152344 186.453125 162.929688 187.691406 162.78125 188.941406 C 162.464844 191.726562 162.324219 194.527344 162.371094 197.328125 C 162.371094 200.230469 162.539062 203.179688 162.769531 206.128906 C 163 209.078125 163.378906 212.128906 163.769531 214.910156 L 163.769531 215.050781 C 164.289062 218.191406 162.214844 221.175781 159.089844 221.78125 C 155.964844 222.386719 152.925781 220.398438 152.230469 217.289062 C 151.449219 214.019531 150.851562 210.960938 150.289062 207.769531 C 149.730469 204.578125 149.238281 201.390625 148.898438 198.109375 C 148.527344 194.746094 148.371094 191.363281 148.429688 187.980469 C 148.472656 186.144531 148.621094 184.308594 148.878906 182.488281 C 149.019531 181.488281 149.199219 180.488281 149.449219 179.488281 C 149.707031 178.476562 150.011719 177.472656 150.371094 176.488281 C 151.703125 173.042969 153.410156 169.75 155.460938 166.671875 C 157.316406 163.828125 159.316406 161.082031 161.460938 158.449219 C 163.558594 155.859375 165.738281 153.398438 167.960938 150.988281 C 169.066406 149.785156 170.195312 148.59375 171.351562 147.421875 L 173.089844 145.660156 C 173.699219 145.070312 174.238281 144.53125 174.960938 143.859375 L 175.128906 143.710938 C 179.050781 140.230469 185.035156 140.519531 188.601562 144.367188 C 192.164062 148.214844 192 154.203125 188.230469 157.851562 C 187.957031 158.121094 187.671875 158.378906 187.371094 158.621094 Z M 187.371094 158.621094 "/>
<path style=" stroke:none;fill-rule:nonzero;fill:rgb(100%,54.509804%,48.235294%);fill-opacity:1;" d="M 154.148438 218.230469 C 154.507812 217.21875 155.363281 216.464844 156.410156 216.230469 L 159.410156 215.519531 C 160.898438 215.167969 162.425781 215.921875 163.050781 217.320312 L 163.609375 218.558594 C 165.226562 222.160156 166.078125 226.054688 166.109375 230 C 166.117188 230.878906 165.769531 231.722656 165.144531 232.34375 C 164.523438 232.964844 163.679688 233.308594 162.800781 233.300781 L 158.800781 233.300781 C 157.199219 233.289062 155.847656 232.113281 155.609375 230.53125 L 154.898438 225.859375 C 154.898438 225.859375 153.058594 221.421875 154.148438 218.230469 Z M 154.148438 218.230469 "/>
<use xlink:href="#surface24" mask="url(#mask6)"/>
<use xlink:href="#surface27" mask="url(#mask7)"/>
<use xlink:href="#surface30" mask="url(#mask8)"/>
<path style=" stroke:none;fill-rule:nonzero;fill:rgb(72.941176%,27.843137%,63.529412%);fill-opacity:1;" d="M 293.808594 232.621094 C 293.691406 232.621094 293.574219 232.605469 293.460938 232.570312 L 272 226.300781 C 267.863281 225.082031 265.472656 220.761719 266.640625 216.609375 L 275.449219 185.410156 C 276.410156 182.023438 279.5 179.683594 283.019531 179.679688 L 304.601562 179.679688 C 308.121094 179.683594 311.214844 182.023438 312.179688 185.410156 L 320.988281 216.609375 C 322.148438 220.765625 319.757812 225.082031 315.621094 226.300781 L 294.171875 232.570312 C 294.054688 232.605469 293.933594 232.621094 293.808594 232.621094 Z M 283 182.191406 C 280.609375 182.203125 278.511719 183.792969 277.851562 186.089844 L 269.039062 217.289062 C 268.246094 220.117188 269.875 223.058594 272.691406 223.890625 L 293.789062 230.050781 L 314.898438 223.890625 C 317.714844 223.054688 319.335938 220.117188 318.550781 217.289062 L 309.738281 186.089844 C 309.078125 183.789062 306.976562 182.199219 304.578125 182.191406 Z M 283 182.191406 "/>
<use xlink:href="#surface33" mask="url(#mask9)"/>
<path style=" stroke:none;fill-rule:nonzero;fill:rgb(72.941176%,27.843137%,63.529412%);fill-opacity:1;" d="M 293.808594 173.140625 C 300.21875 173.140625 305.414062 178.332031 305.421875 184.738281 L 282.210938 184.738281 C 282.210938 178.332031 287.402344 173.140625 293.808594 173.140625 Z M 293.808594 173.140625 "/>
<use xlink:href="#surface36" mask="url(#mask10)"/>
<path style=" stroke:none;fill-rule:nonzero;fill:rgb(72.941176%,27.843137%,63.529412%);fill-opacity:1;" d="M 280.78125 188.75 L 306.851562 188.75 C 307.261719 188.761719 307.636719 188.519531 307.796875 188.144531 C 307.957031 187.765625 307.871094 187.328125 307.578125 187.039062 L 305.421875 184.738281 L 282.210938 184.738281 L 280 187 C 279.664062 187.289062 279.558594 187.761719 279.738281 188.164062 C 279.917969 188.570312 280.34375 188.804688 280.78125 188.75 Z M 280.78125 188.75 "/>
<use xlink:href="#surface39" mask="url(#mask11)"/>
<use xlink:href="#surface42" mask="url(#mask12)"/>
<path style=" stroke:none;fill-rule:nonzero;fill:rgb(72.941176%,27.843137%,63.529412%);fill-opacity:1;" d="M 282.871094 191.871094 L 304.761719 191.871094 C 304.992188 191.871094 305.210938 191.765625 305.355469 191.582031 C 305.496094 191.402344 305.550781 191.164062 305.5 190.941406 L 305 188.75 L 282.628906 188.75 L 282.121094 190.941406 C 282.066406 191.167969 282.121094 191.40625 282.269531 191.585938 C 282.414062 191.769531 282.636719 191.871094 282.871094 191.871094 Z M 282.871094 191.871094 "/>
<path style=" stroke:none;fill-rule:nonzero;fill:rgb(72.941176%,27.843137%,63.529412%);fill-opacity:1;" d="M 281.691406 225.261719 L 305.941406 225.261719 L 302.960938 221.261719 L 284.660156 221.261719 Z M 281.691406 225.261719 "/>
<use xlink:href="#surface45" mask="url(#mask13)"/>
<path style=" stroke:none;fill-rule:nonzero;fill:rgb(72.941176%,27.843137%,63.529412%);fill-opacity:1;" d="M 277.109375 238.761719 L 310.519531 238.761719 L 309.199219 236.101562 C 308.78125 235.277344 307.941406 234.761719 307.019531 234.761719 L 280.609375 234.761719 C 279.6875 234.757812 278.84375 235.277344 278.429688 236.101562 Z M 277.109375 238.761719 "/>
<path style=" stroke:none;fill-rule:nonzero;fill:rgb(72.941176%,27.843137%,63.529412%);fill-opacity:1;" d="M 302.179688 218.128906 L 285.441406 218.128906 C 285.28125 218.128906 285.128906 218.203125 285.023438 218.324219 C 284.921875 218.449219 284.878906 218.613281 284.910156 218.769531 L 285.371094 221.261719 L 302.25 221.261719 L 302.710938 218.769531 C 302.738281 218.613281 302.699219 218.449219 302.59375 218.324219 C 302.492188 218.203125 302.339844 218.128906 302.179688 218.128906 Z M 302.179688 218.128906 "/>
<path style=" stroke:none;fill-rule:nonzero;fill:rgb(72.941176%,27.843137%,63.529412%);fill-opacity:1;" d="M 305.941406 234.75 L 281.679688 234.75 L 281.679688 225.25 L 305.941406 225.25 Z M 305.941406 234.75 "/>
<use xlink:href="#surface48" mask="url(#mask14)"/>
<path style=" stroke:none;fill-rule:nonzero;fill:rgb(72.941176%,27.843137%,63.529412%);fill-opacity:1;" d="M 283.398438 216.371094 C 283.152344 216.371094 282.929688 216.226562 282.828125 216 C 282.753906 215.851562 282.746094 215.675781 282.800781 215.519531 C 282.859375 215.363281 282.976562 215.238281 283.128906 215.171875 C 295.449219 209.429688 306.53125 195.171875 306.640625 194.980469 C 306.851562 194.707031 307.246094 194.660156 307.519531 194.871094 C 307.65625 194.96875 307.742188 195.117188 307.765625 195.285156 C 307.789062 195.449219 307.742188 195.617188 307.640625 195.75 C 307.519531 195.898438 296.261719 210.429688 283.640625 216.308594 C 283.566406 216.347656 283.484375 216.367188 283.398438 216.371094 Z M 283.398438 216.371094 "/>
<path style=" stroke:none;fill-rule:nonzero;fill:rgb(72.941176%,27.843137%,63.529412%);fill-opacity:1;" d="M 304.230469 216.371094 C 304.136719 216.371094 304.042969 216.347656 303.960938 216.308594 C 291.359375 210.429688 280.101562 195.898438 279.960938 195.75 C 279.75 195.476562 279.796875 195.082031 280.070312 194.871094 C 280.347656 194.65625 280.742188 194.707031 280.960938 194.980469 C 281.070312 195.128906 292.148438 209.429688 304.46875 215.171875 C 304.621094 215.238281 304.738281 215.367188 304.792969 215.523438 C 304.851562 215.679688 304.839844 215.851562 304.769531 216 C 304.671875 216.214844 304.464844 216.355469 304.230469 216.371094 Z M 304.230469 216.371094 "/>
<path style=" stroke:none;fill-rule:nonzero;fill:rgb(72.941176%,27.843137%,63.529412%);fill-opacity:1;" d="M 308.910156 181.25 C 307.347656 181.25 306.078125 179.984375 306.078125 178.421875 C 306.078125 176.855469 307.347656 175.589844 308.910156 175.589844 C 310.472656 175.589844 311.738281 176.855469 311.738281 178.421875 C 311.738281 179.984375 310.472656 181.25 308.910156 181.25 Z M 308.910156 176.851562 C 308.042969 176.851562 307.339844 177.554688 307.339844 178.421875 C 307.339844 179.285156 308.042969 179.988281 308.910156 179.988281 C 309.777344 179.988281 310.480469 179.285156 310.480469 178.421875 C 310.480469 177.554688 309.777344 176.851562 308.910156 176.851562 Z M 308.910156 176.851562 "/>
<path style=" stroke:none;fill-rule:nonzero;fill:rgb(72.941176%,27.843137%,63.529412%);fill-opacity:1;" d="M 278.710938 181.25 C 277.148438 181.246094 275.886719 179.976562 275.890625 178.414062 C 275.894531 176.851562 277.160156 175.589844 278.722656 175.589844 C 280.285156 175.59375 281.550781 176.859375 281.550781 178.421875 C 281.550781 179.171875 281.25 179.894531 280.71875 180.425781 C 280.183594 180.957031 279.460938 181.253906 278.710938 181.25 Z M 278.710938 176.851562 C 277.84375 176.855469 277.144531 177.5625 277.148438 178.425781 C 277.152344 179.292969 277.859375 179.992188 278.722656 179.988281 C 279.589844 179.988281 280.289062 179.285156 280.289062 178.421875 C 280.289062 178 280.125 177.601562 279.828125 177.304688 C 279.53125 177.011719 279.128906 176.847656 278.710938 176.851562 Z M 278.710938 176.851562 "/>
<path style=" stroke:none;fill-rule:nonzero;fill:rgb(72.941176%,27.843137%,63.529412%);fill-opacity:1;" d="M 308.910156 176.851562 C 308.601562 176.847656 308.339844 176.625 308.289062 176.320312 L 305.160156 157.140625 C 305.050781 156.441406 304.515625 155.882812 303.820312 155.738281 L 296.109375 154.078125 C 294.597656 153.75 293.03125 153.75 291.519531 154.078125 L 283.800781 155.738281 C 283.109375 155.886719 282.578125 156.441406 282.460938 157.140625 L 279.339844 176.320312 C 279.285156 176.664062 278.960938 176.898438 278.613281 176.84375 C 278.269531 176.789062 278.035156 176.464844 278.089844 176.121094 L 281.21875 156.941406 C 281.425781 155.730469 282.34375 154.769531 283.539062 154.511719 L 291.25 152.851562 C 292.9375 152.480469 294.683594 152.480469 296.371094 152.851562 L 304.089844 154.511719 C 305.28125 154.773438 306.195312 155.734375 306.398438 156.941406 L 309.53125 176.121094 C 309.585938 176.460938 309.351562 176.785156 309.011719 176.839844 Z M 308.910156 176.851562 "/>
</g>
</svg>
