<?xml version="1.0" encoding="UTF-8"?>
<svg xmlns="http://www.w3.org/2000/svg" xmlns:xlink="http://www.w3.org/1999/xlink" width="929pt" height="723pt" viewBox="0 0 929 723" version="1.1">
<defs>
<linearGradient id="linear0" gradientUnits="userSpaceOnUse" x1="241.7507" y1="578.39893" x2="874.22589" y2="578.39893" gradientTransform="matrix(1.365106,0,0,1.366557,-262.898543,-440.79829)">
<stop offset="0" style="stop-color:rgb(83.921569%,36.470588%,67.058824%);stop-opacity:1;"/>
<stop offset="1" style="stop-color:rgb(64.313725%,37.647059%,83.921569%);stop-opacity:1;"/>
</linearGradient>
<linearGradient id="linear1" gradientUnits="userSpaceOnUse" x1="261.59039" y1="572.12567" x2="874.22589" y2="572.12567" gradientTransform="matrix(1.365106,0,0,1.366557,-262.898543,-440.79829)">
<stop offset="0" style="stop-color:rgb(76.470588%,28.627451%,58.823529%);stop-opacity:1;"/>
<stop offset="1" style="stop-color:rgb(52.54902%,30.588235%,80.392157%);stop-opacity:1;"/>
</linearGradient>
</defs>
<g id="surface1">
<path style=" stroke:none;fill-rule:nonzero;fill:url(#linear0);" d="M 930.476562 682.921875 C 930.476562 682.921875 690.21875 771.75 553.707031 539.433594 C 553.707031 539.433594 526.40625 471.105469 430.847656 477.9375 C 335.289062 484.769531 295.703125 391.84375 288.878906 313.953125 C 282.050781 236.058594 245.195312 195.0625 138.714844 171.828125 C 74.554688 151.332031 36.332031 66.605469 99.128906 -0.355469 L 930.476562 -0.355469 Z M 930.476562 682.921875 "/>
<path style=" stroke:none;fill-rule:nonzero;fill:url(#linear1);" d="M 930.476562 666.523438 C 930.476562 666.523438 710.285156 770.109375 641.210938 424.777344 C 639.574219 416.304688 638.617188 407.695312 638.480469 398.953125 C 637.523438 353.71875 620.050781 178.390625 406.277344 149.964844 C 402.179688 151.332031 355.765625 137.664062 234.273438 154.0625 C 114.828125 170.191406 60.90625 76.171875 115.507812 1.007812 L 267.035156 1.007812 C 267.035156 1.007812 269.765625 50.207031 354.402344 37.90625 C 439.039062 25.609375 789.871094 -76.882812 822.632812 318.050781 C 822.632812 318.050781 843.109375 477.9375 930.476562 536.699219 Z M 930.476562 666.523438 "/>
<path style=" stroke:none;fill-rule:nonzero;fill:rgb(60%,29.803922%,75.294118%);fill-opacity:1;" d="M 930.476562 195.0625 C 930.476562 195.0625 881.332031 121.265625 875.871094 -0.355469 L 930.476562 -0.355469 Z M 930.476562 195.0625 "/>
</g>
</svg>
